{
	"asset":{
		"generator":"Khronos glTF Blender I/O v4.0.44",
		"version":"2.0"
	},
	"scene":0,
	"scenes":[
		{
			"name":"Scene",
			"nodes":[
				13
			]
		}
	],
	"nodes":[
		{
			"mesh":0,
			"name":"minivan body_Body_0",
			"translation":[
				0,
				0,
				0.00017044320702552795
			]
		},
		{
			"mesh":1,
			"name":"minivan body_Optics_0",
			"translation":[
				0,
				0,
				0.00017044320702552795
			]
		},
		{
			"children":[
				0,
				1
			],
			"name":"minivan body",
			"rotation":[
				-0.0046462113969028,
				-0.7070914506912231,
				0.7070915699005127,
				0.004646241664886475
			],
			"translation":[
				93.74491119384766,
				-109.7760009765625,
				0
			]
		},
		{
			"mesh":2,
			"name":"Wheel_D_Wheel_0",
			"translation":[
				6.725042112520896e-06,
				3.843987360596657e-05,
				0.0001097104832297191
			]
		},
		{
			"children":[
				3
			],
			"name":"Wheel_D",
			"rotation":[
				-0.0046462113969028,
				-0.7070914506912231,
				0.7070915699005127,
				0.004646241664886475
			],
			"translation":[
				-669.263671875,
				1609.4376220703125,
				352.589599609375
			]
		},
		{
			"mesh":3,
			"name":"Wheel_D001_Wheel_0",
			"translation":[
				0.0001720683358144015,
				2.9985039873281494e-06,
				0
			]
		},
		{
			"children":[
				5
			],
			"name":"Wheel_D001",
			"rotation":[
				-0.0046462113969028,
				-0.7070914506912231,
				0.7070915699005127,
				0.004646241664886475
			],
			"translation":[
				-711.2628784179688,
				-1586.236572265625,
				352.5897216796875
			]
		},
		{
			"mesh":4,
			"name":"Wheel_D002_Wheel_0",
			"translation":[
				6.725042112520896e-06,
				3.413096419535577e-05,
				0.0004063031810801476
			]
		},
		{
			"children":[
				7
			],
			"name":"Wheel_D002",
			"rotation":[
				-0.0046462113969028,
				-0.7070914506912231,
				0.7070915699005127,
				0.004646241664886475
			],
			"translation":[
				901.671630859375,
				1588.7918701171875,
				352.589599609375
			]
		},
		{
			"mesh":5,
			"name":"Wheel_D003_Wheel_0",
			"translation":[
				4.074812386534177e-05,
				2.9207198167569004e-05,
				0
			]
		},
		{
			"children":[
				9
			],
			"name":"Wheel_D003",
			"rotation":[
				-0.0046462113969028,
				-0.7070914506912231,
				0.7070915699005127,
				0.004646241664886475
			],
			"translation":[
				859.6720581054688,
				-1606.8829345703125,
				352.5897216796875
			]
		},
		{
			"children":[
				2,
				4,
				6,
				8,
				10
			],
			"name":"RootNode",
			"translation":[
				-9.191717253997922e-06,
				0.00013921383651904762,
				0
			]
		},
		{
			"children":[
				11
			],
			"name":"06616efc1e4849a0a7ec94a684d4c81c.fbx",
			"rotation":[
				0.70710688829422,
				0,
				0,
				0.7071066498756409
			],
			"translation":[
				6.067100912332535e-06,
				0,
				1.714352583803702e-05
			]
		},
		{
			"children":[
				12
			],
			"name":"Sketchfab_model",
			"rotation":[
				-0.70710688829422,
				0,
				0,
				0.7071066498756409
			],
			"scale":[
				0.0008886755094863474,
				0.0008886756259016693,
				0.0008886756259016693
			],
			"translation":[
				-0.0871342197060585,
				1.4268231391906738,
				0
			]
		}
	],
	"materials":[
		{
			"name":"Body_2.001",
			"pbrMetallicRoughness":{
				"baseColorTexture":{
					"index":0
				},
				"metallicRoughnessTexture":{
					"index":1
				}
			}
		},
		{
			"name":"Optics_2.001",
			"pbrMetallicRoughness":{
				"baseColorTexture":{
					"index":2
				},
				"metallicFactor":0,
				"roughnessFactor":0
			}
		},
		{
			"doubleSided":true,
			"name":"Wheel_1.001",
			"pbrMetallicRoughness":{
				"baseColorTexture":{
					"index":3
				},
				"metallicRoughnessTexture":{
					"index":4
				}
			}
		}
	],
	"meshes":[
		{
			"name":"minivan body_Body_0.001",
			"primitives":[
				{
					"attributes":{
						"POSITION":0,
						"NORMAL":1,
						"TEXCOORD_0":2
					},
					"indices":3,
					"material":0
				}
			]
		},
		{
			"name":"minivan body_Optics_0.001",
			"primitives":[
				{
					"attributes":{
						"POSITION":4,
						"NORMAL":5,
						"TEXCOORD_0":6
					},
					"indices":7,
					"material":1
				}
			]
		},
		{
			"name":"Wheel_D_Wheel_0.001",
			"primitives":[
				{
					"attributes":{
						"POSITION":8,
						"NORMAL":9,
						"TEXCOORD_0":10
					},
					"indices":11,
					"material":2
				}
			]
		},
		{
			"name":"Wheel_D001_Wheel_0.001",
			"primitives":[
				{
					"attributes":{
						"POSITION":12,
						"NORMAL":13,
						"TEXCOORD_0":14
					},
					"indices":11,
					"material":2
				}
			]
		},
		{
			"name":"Wheel_D002_Wheel_0.001",
			"primitives":[
				{
					"attributes":{
						"POSITION":15,
						"NORMAL":16,
						"TEXCOORD_0":17
					},
					"indices":18,
					"material":2
				}
			]
		},
		{
			"name":"Wheel_D003_Wheel_0.001",
			"primitives":[
				{
					"attributes":{
						"POSITION":19,
						"NORMAL":20,
						"TEXCOORD_0":21
					},
					"indices":18,
					"material":2
				}
			]
		}
	],
	"textures":[
		{
			"sampler":0,
			"source":0
		},
		{
			"sampler":0,
			"source":1
		},
		{
			"sampler":0,
			"source":2
		},
		{
			"sampler":0,
			"source":3
		},
		{
			"sampler":0,
			"source":4
		}
	],
	"images":[
		{
			"mimeType":"image/png",
			"name":"Image_17",
			"uri":"tex_red_car_z/Image_17.png"
		},
		{
			"mimeType":"image/png",
			"name":"Image_18",
			"uri":"tex_red_car_z/Image_18.png"
		},
		{
			"mimeType":"image/jpeg",
			"name":"Image_6",
			"uri":"tex_red_car_z/Image_6.jpg"
		},
		{
			"mimeType":"image/png",
			"name":"Image_15",
			"uri":"tex_red_car_z/Image_15.png"
		},
		{
			"mimeType":"image/png",
			"name":"Image_16",
			"uri":"tex_red_car_z/Image_16.png"
		}
	],
	"accessors":[
		{
			"bufferView":0,
			"componentType":5126,
			"count":4921,
			"max":[
				1051.19287109375,
				-181.3486328125,
				2556.767578125
			],
			"min":[
				-1051.192626953125,
				-1978.4423828125,
				-2629.6826171875
			],
			"type":"VEC3"
		},
		{
			"bufferView":1,
			"componentType":5126,
			"count":4921,
			"type":"VEC3"
		},
		{
			"bufferView":2,
			"componentType":5126,
			"count":4921,
			"type":"VEC2"
		},
		{
			"bufferView":3,
			"componentType":5123,
			"count":13803,
			"type":"SCALAR"
		},
		{
			"bufferView":4,
			"componentType":5126,
			"count":210,
			"max":[
				902.5625,
				-316.0196228027344,
				2393.14501953125
			],
			"min":[
				-902.562744140625,
				-1171.766845703125,
				-2515.271484375
			],
			"type":"VEC3"
		},
		{
			"bufferView":5,
			"componentType":5126,
			"count":210,
			"type":"VEC3"
		},
		{
			"bufferView":6,
			"componentType":5126,
			"count":210,
			"type":"VEC2"
		},
		{
			"bufferView":7,
			"componentType":5123,
			"count":588,
			"type":"SCALAR"
		},
		{
			"bufferView":8,
			"componentType":5126,
			"count":566,
			"max":[
				169.52027893066406,
				357.824462890625,
				357.824462890625
			],
			"min":[
				-145.6311492919922,
				-357.824462890625,
				-357.824462890625
			],
			"type":"VEC3"
		},
		{
			"bufferView":9,
			"componentType":5126,
			"count":566,
			"type":"VEC3"
		},
		{
			"bufferView":10,
			"componentType":5126,
			"count":566,
			"type":"VEC2"
		},
		{
			"bufferView":11,
			"componentType":5123,
			"count":1842,
			"type":"SCALAR"
		},
		{
			"bufferView":12,
			"componentType":5126,
			"count":566,
			"max":[
				169.52027893066406,
				357.824462890625,
				357.824462890625
			],
			"min":[
				-145.6311492919922,
				-357.824462890625,
				-357.824462890625
			],
			"type":"VEC3"
		},
		{
			"bufferView":13,
			"componentType":5126,
			"count":566,
			"type":"VEC3"
		},
		{
			"bufferView":14,
			"componentType":5126,
			"count":566,
			"type":"VEC2"
		},
		{
			"bufferView":15,
			"componentType":5126,
			"count":566,
			"max":[
				145.6311492919922,
				357.824462890625,
				357.824462890625
			],
			"min":[
				-169.52027893066406,
				-357.824462890625,
				-357.824462890625
			],
			"type":"VEC3"
		},
		{
			"bufferView":16,
			"componentType":5126,
			"count":566,
			"type":"VEC3"
		},
		{
			"bufferView":17,
			"componentType":5126,
			"count":566,
			"type":"VEC2"
		},
		{
			"bufferView":18,
			"componentType":5123,
			"count":1842,
			"type":"SCALAR"
		},
		{
			"bufferView":19,
			"componentType":5126,
			"count":566,
			"max":[
				145.6311492919922,
				357.824462890625,
				357.824462890625
			],
			"min":[
				-169.52027893066406,
				-357.824462890625,
				-357.824462890625
			],
			"type":"VEC3"
		},
		{
			"bufferView":20,
			"componentType":5126,
			"count":566,
			"type":"VEC3"
		},
		{
			"bufferView":21,
			"componentType":5126,
			"count":566,
			"type":"VEC2"
		}
	],
	"bufferViews":[
		{
			"buffer":0,
			"byteLength":59052,
			"byteOffset":0,
			"target":34962
		},
		{
			"buffer":0,
			"byteLength":59052,
			"byteOffset":59052,
			"target":34962
		},
		{
			"buffer":0,
			"byteLength":39368,
			"byteOffset":118104,
			"target":34962
		},
		{
			"buffer":0,
			"byteLength":27606,
			"byteOffset":157472,
			"target":34963
		},
		{
			"buffer":0,
			"byteLength":2520,
			"byteOffset":185080,
			"target":34962
		},
		{
			"buffer":0,
			"byteLength":2520,
			"byteOffset":187600,
			"target":34962
		},
		{
			"buffer":0,
			"byteLength":1680,
			"byteOffset":190120,
			"target":34962
		},
		{
			"buffer":0,
			"byteLength":1176,
			"byteOffset":191800,
			"target":34963
		},
		{
			"buffer":0,
			"byteLength":6792,
			"byteOffset":192976,
			"target":34962
		},
		{
			"buffer":0,
			"byteLength":6792,
			"byteOffset":199768,
			"target":34962
		},
		{
			"buffer":0,
			"byteLength":4528,
			"byteOffset":206560,
			"target":34962
		},
		{
			"buffer":0,
			"byteLength":3684,
			"byteOffset":211088,
			"target":34963
		},
		{
			"buffer":0,
			"byteLength":6792,
			"byteOffset":214772,
			"target":34962
		},
		{
			"buffer":0,
			"byteLength":6792,
			"byteOffset":221564,
			"target":34962
		},
		{
			"buffer":0,
			"byteLength":4528,
			"byteOffset":228356,
			"target":34962
		},
		{
			"buffer":0,
			"byteLength":6792,
			"byteOffset":232884,
			"target":34962
		},
		{
			"buffer":0,
			"byteLength":6792,
			"byteOffset":239676,
			"target":34962
		},
		{
			"buffer":0,
			"byteLength":4528,
			"byteOffset":246468,
			"target":34962
		},
		{
			"buffer":0,
			"byteLength":3684,
			"byteOffset":250996,
			"target":34963
		},
		{
			"buffer":0,
			"byteLength":6792,
			"byteOffset":254680,
			"target":34962
		},
		{
			"buffer":0,
			"byteLength":6792,
			"byteOffset":261472,
			"target":34962
		},
		{
			"buffer":0,
			"byteLength":4528,
			"byteOffset":268264,
			"target":34962
		}
	],
	"samplers":[
		{
			"magFilter":9729,
			"minFilter":9987
		}
	],
	"buffers":[
		{
			"byteLength":272792,
			"uri":"car_2z.bin"
		}
	]
}
